<svg width="1924" height="1623" viewBox="0 0 1924 1623" fill="none" xmlns="http://www.w3.org/2000/svg">
<path d="M1080.87 1607.3L324.392 1617L217.709 1597.6L153.053 1584.67L111.026 1477.98L69 1380.99L153.053 1368.06L295.296 1342.19L275.899 1254.9L295.296 1115.88L486.032 1125.58L511.894 1070.61L382.582 1005.95L275.899 886.331L392.28 802.271L269.434 643.852L337.323 624.453L392.28 553.326L363.185 394.907L437.54 411.072L498.963 349.644V194.458L621.81 142.729L773.751 233.254V142.729L899.831 91L1058.24 194.458L1258.67 242.953L1333.03 482.199L1171.39 566.258L1022.68 705.28L1375.05 763.475L1333.03 999.487L1058.24 1031.82V1093.25L1067.94 1199.94C1161.69 1221.49 1347.9 1264.6 1342.72 1264.6C1337.55 1264.6 1495.74 1333.57 1575.49 1368.06V1453.22L1604.58 1387.45L1575.49 1322.79L1407.38 1254.9L1504.37 1125.58L1552.86 1031.82L1685.4 999.487L1788.85 1031.82L1775.92 1125.58L1859.97 1222.57L1902 1368.06V1497.38V1581.44L1889 1614L1698 1619L1504.37 1614L1542 1528.93L1080.87 1607.3Z" fill="white"/>
<path d="M849.957 3.06287C848.495 4.74744 846.302 6.12573 845.133 6.12573C843.818 6.12573 841.625 7.35095 840.164 8.72925C838.41 10.4138 835.486 11.1796 832.271 11.0264C828.178 10.7201 825.839 11.7921 821.162 16.0802C817.8 18.99 814 21.4403 812.538 21.4403C811.223 21.4403 809.176 22.5123 808.153 23.8906C807.13 25.2689 802.599 28.7913 798.068 31.701C789.59 37.3674 767.373 60.3391 767.373 63.5552C767.373 64.4741 765.034 68.1495 762.257 71.5188C759.334 75.1942 757.141 79.4823 757.141 81.7795C757.141 84.0767 755.972 86.3739 754.218 87.2927C752.61 88.2115 751.294 90.2025 751.294 91.7339C751.294 93.2654 749.979 96.3282 748.371 98.4723C746.617 100.77 745.448 104.598 745.448 108.427C745.448 111.949 744.571 115.318 743.255 116.39C742.086 117.462 741.063 119.913 741.063 122.057C741.063 127.11 737.263 128.182 733.17 124.201C731.416 122.363 729.516 121.444 728.931 121.904C728.492 122.516 724.984 120.066 721.184 116.543C717.384 113.174 713.291 110.265 711.83 110.265C710.514 110.265 708.175 108.886 706.714 107.202C705.252 105.517 702.913 104.139 701.598 104.139C700.136 104.139 697.359 102.76 695.313 101.076C693.266 99.3912 690.635 98.0129 689.466 98.0129C688.443 98.0129 686.25 96.6345 684.789 94.95C683.327 93.2654 680.404 91.8871 678.211 91.8871C676.165 91.8871 673.096 90.8151 671.488 89.5898C670.026 88.3647 666.664 87.2927 664.179 87.2927C661.548 87.2927 658.479 86.0675 657.017 84.2299C654.825 81.7795 652.486 81.1669 643.862 81.1669C638.162 81.1669 629.977 80.0948 625.738 78.7166C619.16 76.7257 615.945 76.7257 603.959 78.2572C596.212 79.176 584.519 80.248 578.087 80.7075C570.341 81.1669 565.517 82.2389 563.909 83.7704C562.448 85.1487 559.671 86.3739 557.478 86.6802C555.432 86.8333 552.508 88.2115 551.193 89.4368C549.731 90.8151 546.662 91.8871 544.177 91.8871C541.254 91.8871 537.307 93.8779 532.337 98.0129C528.391 101.382 524.152 104.139 522.983 104.139C521.813 104.139 518.744 106.589 515.967 109.499C513.19 112.409 509.974 114.859 508.659 114.859C505.735 114.859 490.826 130.939 484.249 140.894C481.764 144.722 478.402 149.163 476.648 150.695C475.04 152.379 473.579 154.37 473.579 155.442C473.579 156.361 470.217 163.559 466.124 171.523C460.424 182.396 458.523 187.909 458.231 193.422C458.085 197.557 456.916 201.845 455.454 203.377C453.992 205.214 453.115 208.89 453.115 213.484C453.115 217.313 451.8 224.511 450.192 229.258C447.707 236.609 447.269 241.969 447.269 261.572C447.269 281.94 447.707 285.769 450.192 290.976C452.238 295.264 453.115 300.011 453.115 307.209C453.115 313.794 453.992 318.695 455.454 321.605C459.839 329.109 457.646 330.794 444.053 330.794C437.037 330.794 428.413 329.722 423.882 328.19C417.597 326.199 406.342 325.587 371.262 324.821C336.036 324.055 325.951 323.443 323.027 321.605C320.25 319.92 311.48 319.155 285.755 318.542C267.338 318.083 251.26 317.929 250.383 318.236C247.752 319.155 248.044 322.371 250.675 324.668C251.844 325.74 252.868 327.578 252.868 328.803C252.868 330.028 254.183 332.784 255.791 334.928C257.399 337.073 258.714 339.829 258.714 341.054C258.714 342.279 261.053 346.261 263.83 349.784C266.607 353.459 268.946 357.441 268.946 358.666C268.946 359.891 270.261 362.801 271.869 364.945C273.477 367.089 274.793 369.846 274.793 371.071C274.793 372.143 276.108 374.44 277.716 375.971C279.324 377.503 280.639 380.259 280.639 382.097C280.639 384.088 281.662 386.385 282.832 387.457C285.024 389.295 296.717 409.816 296.717 411.807C296.717 412.42 298.325 414.564 300.372 416.555C302.564 418.699 303.733 421.149 303.295 422.681C302.856 424.059 303.88 426.509 305.487 428.041C307.095 429.572 308.411 432.329 308.411 434.167C308.411 436.004 309.726 438.761 311.334 440.292C312.942 441.824 314.257 444.274 314.257 445.806C314.257 447.337 317.035 451.319 320.25 454.688C324.051 458.363 325.951 461.579 325.512 463.111C325.074 464.336 325.951 466.786 327.559 468.777C329.02 470.615 330.336 473.372 330.336 474.75C330.336 476.128 331.651 478.579 333.259 480.11C334.867 481.641 336.182 484.398 336.182 486.236C336.182 487.92 338.813 492.055 342.029 495.425C345.683 499.1 347.583 502.316 347.145 503.848C346.706 505.226 347.876 507.829 349.922 509.82C351.822 511.811 353.138 514.415 352.699 515.946C352.407 517.324 353.43 519.775 355.038 521.306C356.792 522.991 358.107 525.288 358.107 526.513C358.107 527.891 359.423 530.495 361.177 532.333C365.562 537.233 363.515 539.071 353.284 539.071C347.729 539.071 341.152 540.296 336.475 542.134C330.043 544.737 325.366 545.197 304.757 545.197C284.147 545.197 279.616 545.656 273.331 548.26C267.777 550.557 262.368 551.323 252.429 551.323C244.098 551.323 236.497 552.241 232.404 553.773C227.873 555.458 218.372 556.376 200.394 556.836C180.369 557.295 174.376 557.908 172.476 559.746C170.576 561.583 166.045 562.043 152.159 562.043C137.396 562.043 133.157 562.502 127.895 565.106C124.387 566.79 121.172 568.781 120.733 569.547C119.418 571.844 121.026 574.907 124.972 577.357C126.872 578.736 141.05 592.672 156.398 608.446C171.745 624.22 185.339 637.084 186.654 637.084C187.97 637.084 191.332 639.687 194.255 642.75C210.772 660.668 245.559 695.279 247.167 695.279C248.044 695.279 251.26 697.576 254.329 700.18C257.253 702.936 260.907 706.305 262.515 707.837C263.976 709.215 274.5 719.935 285.755 731.881C297.01 743.673 306.803 753.474 307.534 753.474C308.265 753.474 313.673 758.069 319.666 763.582L330.482 773.842L326.389 778.284C324.197 780.734 319.666 784.103 316.45 785.635C313.234 787.166 309.288 789.923 307.826 791.607C306.218 793.445 304.172 794.823 303.149 794.823C301.249 794.823 288.678 802.94 281.809 808.453C279.762 810.291 276.693 811.669 275.085 811.669C273.477 811.669 269.823 814.426 267.046 817.795C263.684 821.93 260.907 823.921 258.422 823.921C256.376 823.921 253.891 824.993 252.721 826.371C251.698 827.596 248.19 830.2 244.975 831.885C241.613 833.722 238.105 836.326 237.082 837.857C236.058 839.542 233.72 840.767 231.82 840.767C229.919 840.767 227.288 842.145 225.827 843.83C224.365 845.514 221.88 846.893 220.273 846.893C218.665 846.893 214.572 849.649 211.064 853.019C207.556 856.388 203.902 858.685 202.879 858.379C201.709 857.919 198.348 860.37 195.132 863.739C191.916 867.108 187.97 869.865 186.216 869.865C184.462 869.865 182.269 870.937 181.246 872.162C180.223 873.387 176.569 875.99 173.061 877.828C169.553 879.666 165.46 882.422 164.145 883.954C162.829 885.485 160.783 886.71 159.467 886.71C158.152 886.864 154.936 888.854 152.305 891.152C146.751 896.206 146.166 902.484 151.282 903.25C155.375 903.863 169.114 911.061 171.161 913.664C172.038 914.889 174.23 915.808 176.13 915.808C177.884 915.808 180.515 917.186 181.977 918.871C183.439 920.709 185.631 921.628 186.654 921.321C187.677 920.862 190.016 921.934 191.77 923.772C193.67 925.763 196.447 926.988 198.348 926.835C200.394 926.528 202.294 927.6 204.048 930.204C205.364 932.348 207.41 934.185 208.579 934.185C209.749 934.185 212.38 935.564 214.426 937.248C216.472 938.933 219.103 940.311 220.126 940.311C221.296 940.311 224.95 942.455 228.312 944.906C231.527 947.356 235.035 949.5 236.058 949.5C237.082 949.5 239.566 950.878 241.613 952.563C243.659 954.247 246.582 955.626 248.19 955.626C249.652 955.626 252.137 957.004 253.598 958.689C255.06 960.373 257.399 961.752 258.714 961.752C260.03 961.752 262.368 963.13 263.83 964.815C265.292 966.499 267.923 967.877 269.677 967.877C271.431 967.877 274.062 969.256 275.523 970.94C276.985 972.625 279.616 974.003 281.37 974.003C282.978 974.003 286.632 976.454 289.409 979.363C292.186 982.273 295.256 984.723 296.279 984.723C298.91 984.723 312.211 992.074 314.404 994.831C315.281 996.056 317.473 996.975 319.373 996.975C321.127 996.975 323.758 998.353 325.22 1000.04C326.682 1001.72 329.313 1003.1 331.067 1003.1C332.821 1003.1 335.452 1004.48 336.767 1006.01C338.229 1007.7 340.275 1008.61 341.444 1008.15C342.614 1007.7 345.098 1008.77 346.999 1010.6C350.653 1014.13 360.592 1019.95 363.223 1019.95C364.1 1019.95 367.9 1022.7 371.847 1026.07C375.647 1029.44 380.032 1032.2 381.494 1032.2C382.956 1032.2 384.856 1033.27 385.879 1034.5C386.902 1035.72 389.241 1036.79 391.141 1036.79C393.041 1036.79 395.818 1038.17 397.134 1039.86C398.595 1041.54 400.788 1042.92 402.103 1042.92C403.419 1042.92 406.196 1044.3 408.242 1045.98C410.289 1047.67 412.92 1049.04 414.089 1049.04C415.112 1049.04 417.305 1050.42 418.766 1052.11C420.228 1053.79 422.713 1055.17 424.174 1055.17C425.782 1055.17 429.729 1057.62 433.091 1060.53C436.306 1063.44 439.668 1065.89 440.545 1065.89C441.422 1065.89 445.953 1067.73 450.63 1070.03C458.816 1074.16 461.008 1077.07 457.062 1078.6C453.992 1079.83 430.167 1078.3 420.959 1076.46C416.574 1075.39 401.08 1074.16 386.61 1073.55C367.754 1072.78 358.692 1071.86 354.453 1070.03C349.63 1068.03 342.029 1067.57 309.142 1067.42C274.208 1067.42 268.361 1067.12 259.007 1064.36C250.529 1061.91 244.098 1061.3 225.096 1061.3C207.995 1061.3 200.102 1060.68 195.132 1059C190.016 1057.01 187.385 1056.85 182.708 1058.23C175.253 1060.38 173.645 1065.12 178.177 1071.86C179.931 1074.31 181.246 1078.75 181.246 1081.51C181.246 1084.88 182.269 1087.94 184.169 1089.63C185.777 1091.16 187.093 1093.92 187.093 1095.75C187.093 1097.59 188.408 1100.35 190.162 1102.03C192.501 1104.18 193.086 1106.17 192.501 1109.69C191.916 1113.52 192.501 1115.36 195.278 1118.11C197.324 1120.26 198.64 1122.86 198.348 1124.39C197.909 1125.77 198.932 1128.22 200.394 1129.6C202.294 1131.44 203.171 1134.35 203.171 1138.63C203.171 1143.08 204.048 1145.83 206.094 1147.82C207.702 1149.35 209.018 1152.11 209.018 1153.8C209.018 1155.63 210.479 1157.93 212.087 1159C214.718 1160.69 215.011 1162.22 214.426 1166.97C213.841 1171.87 214.28 1173.55 217.349 1176.46C219.396 1178.45 220.565 1181.06 220.273 1182.59C219.834 1184.12 220.711 1187.03 222.319 1189.02C223.781 1191.01 225.096 1194.99 225.096 1197.9C225.096 1201.27 225.973 1203.57 228.019 1204.95C229.773 1206.02 230.943 1208.47 230.943 1211.23C230.943 1213.52 232.258 1216.74 233.866 1218.27C235.766 1220.11 236.789 1223.02 236.789 1226.54C236.789 1229.6 237.812 1233.43 238.982 1234.96C240.151 1236.65 241.174 1239.1 241.174 1240.32C241.174 1241.7 242.49 1244.46 244.098 1246.6C245.705 1248.75 247.021 1252.42 247.021 1254.72C247.021 1257.02 248.19 1261.61 249.798 1264.67C255.937 1277.23 258.568 1284.43 259.445 1289.64C259.884 1292.85 261.199 1296.07 262.368 1297.14C264.999 1299.44 265.292 1304.34 262.807 1305.26C261.784 1305.72 257.983 1305.72 254.329 1305.26C250.675 1304.8 242.928 1305.72 236.789 1307.25C228.604 1309.24 216.618 1310.16 190.016 1310.92C160.929 1311.69 153.182 1312.3 148.797 1314.44C144.412 1316.44 138.858 1317.05 121.756 1317.05C106.117 1317.05 98.3699 1317.81 93.6926 1319.5C89.0152 1321.18 79.2221 1321.95 57.8818 1322.41C15.3475 1323.33 0 1324.55 0 1327.16C0 1330.83 7.45448 1345.69 11.1086 1349.36C13.0088 1351.2 14.6166 1353.96 14.6166 1355.49C14.6166 1359.01 21.1941 1372.79 24.1174 1375.24C25.2868 1376.32 26.3099 1378.92 26.3099 1380.91C26.3099 1383.05 28.6486 1388.87 31.5719 1394.08C34.3491 1399.13 36.9801 1405.41 37.2724 1407.86C37.5647 1410.31 39.0264 1413.84 40.488 1415.67C44.2884 1420.27 48.2349 1428.08 48.2349 1431.14C48.2349 1432.52 49.5504 1435.43 51.1582 1437.57C52.766 1439.72 54.0815 1442.63 54.0815 1444.16C54.0815 1445.54 55.397 1447.99 57.0048 1449.52C58.6127 1451.05 59.9282 1453.81 59.9282 1455.64C59.9282 1457.64 60.9513 1459.93 62.1207 1461C63.29 1462.08 64.3131 1464.37 64.3131 1466.36C64.3131 1468.2 65.6286 1470.96 67.2365 1472.49C68.8443 1474.02 70.1598 1476.78 70.1598 1478.46C70.1598 1480.3 71.4753 1482.6 73.0831 1483.67C74.6909 1484.74 76.0064 1487.19 76.0064 1489.18C76.0064 1491.02 77.3219 1493.93 78.9298 1495.46C80.5376 1496.99 81.8531 1499.6 81.8531 1501.13C81.8531 1502.81 83.1686 1505.88 84.6302 1508.02C86.2381 1510.01 87.2612 1512.61 86.8227 1513.69C86.5304 1514.61 87.8459 1517.06 90.0384 1519.05C92.2309 1521.04 93.4002 1523.33 92.9617 1524.87C92.5232 1526.09 93.4002 1529 95.0081 1531.45C96.6159 1533.75 97.9314 1536.51 97.9314 1537.58C97.9314 1538.5 99.2469 1541.1 100.855 1543.24C102.463 1545.39 103.778 1549.06 103.778 1551.36C103.778 1553.81 105.971 1558.56 108.894 1562.54C111.671 1566.37 114.156 1571.58 114.302 1573.87C114.448 1576.17 116.056 1580.3 117.956 1583.06C119.856 1585.67 121.318 1588.88 121.318 1590.11C121.318 1591.33 122.341 1593.17 123.51 1594.24C124.68 1595.31 125.703 1597.61 125.703 1599.29C125.703 1600.98 127.165 1604.04 128.919 1606.03C131.842 1609.25 131.842 1609.71 129.649 1612.31C125.995 1616.45 126.58 1617.67 132.719 1620.28C137.25 1622.11 154.644 1622.57 237.666 1622.88C299.495 1623.19 338.813 1622.88 341.006 1621.96C343.783 1620.89 345.098 1618.9 345.683 1615.07C346.268 1612.01 349.191 1606.95 352.407 1603.12C355.476 1599.45 357.815 1595.62 357.376 1594.39C356.938 1593.32 359.277 1589.8 362.492 1586.74C365.708 1583.67 368.339 1579.69 368.339 1578.01C368.339 1576.32 370.678 1572.49 373.601 1569.58C376.524 1566.83 380.178 1561.62 381.786 1558.25C383.394 1554.88 387.341 1549.22 390.41 1545.69C393.626 1542.02 396.111 1537.88 396.111 1536.35C396.111 1534.82 398.741 1530.84 401.957 1527.62C405.173 1524.41 407.804 1520.73 407.804 1519.51C407.804 1518.43 410.435 1514.15 413.65 1510.16C416.866 1506.18 419.497 1501.89 419.497 1500.67C419.497 1499.44 421.836 1495.92 424.759 1493.01C427.536 1490.26 431.044 1485.35 432.36 1482.45C433.675 1479.54 437.183 1474.02 440.253 1470.35C443.322 1466.67 445.807 1462.54 445.807 1461.16C445.807 1459.78 448.438 1455.8 451.654 1452.58C454.869 1449.37 457.5 1445.23 457.5 1443.39C457.5 1441.56 459.985 1437.57 463.201 1434.36C466.709 1430.84 468.609 1427.62 468.17 1425.93C467.732 1424.25 469.632 1421.49 473.432 1417.97C476.794 1415.06 479.425 1411.39 479.425 1409.7C479.425 1407.86 482.056 1403.88 485.126 1400.67C488.341 1397.3 492.288 1391.48 493.896 1387.65C495.504 1383.82 499.158 1378.61 501.935 1376.32C505.151 1373.71 507.197 1370.8 507.197 1368.66C507.197 1366.67 509.682 1362.69 512.897 1359.32C516.259 1355.79 518.305 1352.58 517.867 1351.2C517.428 1349.82 519.475 1346.61 523.129 1342.93C526.345 1339.56 529.122 1335.73 529.122 1334.2C529.122 1332.82 531.753 1328.84 534.822 1325.47C537.892 1322.1 541.546 1316.9 543.008 1313.99C544.469 1311.08 548.123 1305.72 551.193 1302.19C554.409 1298.52 556.893 1294.38 556.893 1292.85C556.893 1291.32 559.524 1287.34 562.74 1284.12C565.956 1280.91 568.587 1276.77 568.587 1274.93C568.587 1273.1 571.218 1269.11 574.433 1265.74C577.503 1262.53 579.841 1259.31 579.549 1258.7C579.111 1258.09 581.449 1254.26 584.665 1250.28C587.881 1246.14 590.512 1242.01 590.512 1241.09C590.512 1240.17 593.143 1236.19 596.358 1232.36C599.574 1228.53 602.205 1224.7 602.205 1223.63C602.205 1221.33 606.444 1215.05 612.437 1208.32C614.775 1205.56 616.822 1202.19 616.822 1200.5C616.822 1198.97 619.745 1194.84 623.253 1191.47C626.761 1187.95 630.561 1183.05 631.438 1180.6C633.631 1175.24 638.6 1174.62 644.155 1179.22C646.201 1180.9 649.124 1182.28 650.732 1182.28C652.194 1182.28 656.286 1185.04 659.794 1188.41C663.302 1191.78 667.103 1194.53 668.418 1194.53C671.195 1194.53 685.081 1201.73 686.25 1203.72C686.689 1204.64 688.297 1205.25 689.612 1205.25C690.928 1205.25 693.705 1206.63 695.751 1208.32C697.798 1210 700.429 1211.38 701.744 1211.38C703.06 1211.38 705.252 1212.76 706.714 1214.44C708.175 1216.13 710.806 1217.5 712.56 1217.5C714.314 1217.5 716.945 1218.88 718.407 1220.57C719.869 1222.4 723.377 1225.16 726.3 1227L731.27 1230.37L738.432 1222.25C742.232 1217.81 745.448 1213.06 745.448 1211.53C745.448 1210 746.763 1207.55 748.371 1206.02C749.979 1204.49 751.294 1201.73 751.294 1199.89C751.294 1198.05 752.61 1195.3 754.218 1193.77C755.972 1192.24 756.849 1189.94 756.556 1188.87C756.118 1187.79 757.433 1184.88 759.334 1182.43C761.38 1179.98 762.988 1176.92 762.988 1175.7C762.988 1174.47 764.011 1172.63 765.18 1171.56C766.35 1170.49 767.373 1167.73 767.373 1165.28C767.373 1162.68 768.396 1160.38 770.15 1159.46C773.219 1157.62 779.066 1146.75 779.066 1142.77C779.066 1138.94 770.15 1130.21 766.35 1130.21C764.742 1130.21 762.549 1129.14 761.526 1127.91C760.503 1126.69 758.603 1125.62 757.141 1125.62C755.826 1125.62 753.487 1124.24 752.025 1122.55C748.956 1119.03 739.016 1113.37 735.655 1113.37C734.339 1113.37 730.393 1110.76 726.592 1107.7C722.938 1104.48 718.992 1102.03 717.676 1102.34C716.361 1102.49 714.022 1101.27 712.56 1099.58C711.099 1097.9 708.76 1096.52 707.445 1096.52C705.983 1096.52 703.206 1095.14 701.159 1093.46C699.113 1091.77 696.482 1090.39 695.313 1090.39C694.29 1090.39 692.097 1089.02 690.635 1087.33C689.174 1085.65 686.543 1084.27 684.789 1084.27C683.035 1084.27 680.404 1082.89 678.942 1081.2C677.481 1079.52 674.996 1078.14 673.534 1078.14C671.926 1078.14 667.98 1075.69 664.618 1072.78C661.402 1069.87 657.748 1067.42 656.725 1067.42C654.386 1067.42 642.108 1060.53 638.6 1057.31C637.431 1056.09 635.238 1055.17 634.069 1055.17C632.754 1055.17 631 1054.1 629.977 1052.87C628.953 1051.65 626.322 1050.58 623.984 1050.58C621.206 1050.58 619.014 1049.35 617.406 1046.9C616.091 1044.6 614.337 1043.38 613.021 1043.99C611.706 1044.45 609.075 1043.22 606.882 1041.23C602.205 1036.95 594.458 1032.2 591.973 1032.2C590.95 1032.2 587.004 1029.75 583.203 1026.84C579.403 1023.93 575.31 1021.48 574.287 1021.48C573.118 1021.48 570.633 1020.1 568.587 1018.42C566.54 1016.73 563.909 1015.35 562.594 1015.35C561.278 1015.35 559.086 1013.97 557.624 1012.29C556.163 1010.6 553.532 1009.23 551.778 1009.23C550.024 1009.23 547.393 1007.85 545.931 1006.16C544.469 1004.48 541.838 1003.1 540.084 1003.1C538.33 1003.1 535.699 1001.72 534.238 1000.04C532.776 998.2 530.583 997.281 529.56 997.588C528.537 998.047 526.198 996.975 524.298 994.984C520.644 991.155 509.682 984.723 506.758 984.723C505.735 984.723 502.081 982.273 498.865 979.363C495.504 976.454 491.557 974.003 489.949 974.003C488.488 974.003 486.003 972.625 484.687 971.093C483.226 969.409 481.179 968.49 479.864 968.949C478.694 969.409 476.063 968.031 473.725 965.733C471.532 963.589 469.34 962.211 468.755 962.824C468.17 963.283 466.27 962.364 464.37 960.68C460.277 956.851 449.315 951.031 446.246 951.031C444.784 951.031 441.422 948.581 438.499 945.671C435.575 942.608 431.19 939.852 428.852 939.392C426.513 938.933 423.59 937.555 422.274 936.33C421.105 935.104 419.351 934.185 418.62 934.185C417.889 934.185 415.697 932.807 413.65 931.123C411.604 929.438 408.973 928.06 407.658 928.06C406.342 928.06 404.15 926.681 402.688 924.997C401.226 923.312 398.157 921.934 395.964 921.934C393.333 921.934 391.287 920.862 390.264 918.871C389.241 916.727 387.779 915.961 386.025 916.574C384.417 917.033 381.494 915.502 377.986 911.979C374.916 909.07 369.654 905.854 366.293 904.782C363.077 903.71 356.792 900.187 352.699 896.818L344.952 890.845L349.776 885.792C352.261 882.882 355.622 880.585 356.938 880.585C360.007 880.585 374.624 871.09 380.325 865.73C382.371 863.586 384.856 862.36 385.733 862.82C386.464 863.432 390.264 861.442 393.918 858.379C397.718 855.469 401.519 853.019 402.542 853.019C403.565 853.019 405.904 851.334 407.804 849.19C409.704 847.046 412.189 845.668 413.066 845.974C414.089 846.433 417.597 843.983 420.813 840.614C424.174 837.398 427.975 834.641 429.583 834.641C431.044 834.641 433.091 833.569 434.114 832.344C434.991 831.119 437.329 829.74 438.937 829.128C440.691 828.515 445.222 825.759 448.876 823.002C452.677 820.092 456.623 817.795 457.793 817.795C458.962 817.795 461.447 816.111 463.347 813.967C465.247 811.823 467.878 810.138 469.194 810.138C470.509 810.138 474.309 807.688 477.525 804.778C480.887 801.868 484.833 799.418 486.441 799.418C489.657 799.418 491.119 796.661 491.119 790.382C491.119 785.788 486.88 780.887 476.94 773.842C473.579 771.545 458.231 756.843 442.884 741.223C427.536 725.602 412.481 711.359 409.558 709.522C406.634 707.684 394.357 695.892 382.225 683.334C370.239 670.776 358.107 659.29 355.622 657.605C344.075 650.714 353.868 643.21 374.332 643.21C383.394 643.21 388.218 642.291 393.041 640.147C398.595 637.39 402.542 637.084 425.782 637.084C448.876 637.084 452.531 636.778 455.016 634.327C457.208 632.183 461.447 631.571 477.087 630.958C491.703 630.345 497.111 629.58 499.742 627.589C502.52 625.598 505.151 625.139 512.313 625.904C520.644 626.67 521.667 626.517 523.129 623.454C525.029 619.932 522.69 615.031 516.113 608.905C514.359 607.221 513.043 604.464 513.043 602.626C513.043 600.788 511.728 598.032 510.12 596.5C508.512 594.969 507.197 592.978 507.197 592.059C507.197 591.14 505.881 588.69 504.273 586.546C502.666 584.402 501.35 581.645 501.35 580.267C501.35 579.042 499.012 575.06 496.234 571.691C493.457 568.169 491.119 564.187 491.119 562.808C491.119 561.277 489.511 558.52 487.611 556.683C485.272 554.539 484.249 552.088 484.687 550.251C485.126 548.566 484.249 546.269 482.495 544.584C480.741 542.9 479.425 540.602 479.425 539.377C479.425 538.152 477.087 534.17 474.309 530.495C471.532 526.973 469.194 522.991 469.194 521.766C469.194 520.54 467.878 517.784 466.27 515.64C464.662 513.496 463.347 510.739 463.347 509.514C463.347 508.442 462.031 506.145 460.424 504.613C458.816 503.082 457.5 500.478 457.5 498.794C457.5 496.956 456.331 494.199 454.723 492.515C453.262 490.677 450.338 486.083 448.292 482.254C441.714 469.696 440.691 467.858 437.476 463.57C435.722 461.273 434.552 458.517 434.991 457.445C435.283 456.373 434.406 454.075 432.652 452.544C431.044 451.012 429.729 448.256 429.729 446.571C429.729 444.734 428.413 442.436 426.805 441.364C425.198 440.292 423.882 438.148 423.882 436.617C423.882 434.013 425.344 433.86 443.322 434.167C453.846 434.32 465.539 435.239 469.047 436.311C472.555 437.383 479.425 438.761 484.249 439.22L493.019 440.292L497.842 449.481C500.473 454.535 502.666 460.201 502.812 462.192C502.812 464.183 505.151 468.777 507.928 472.3C510.705 475.975 513.043 479.651 513.043 480.723C513.043 483.786 519.182 495.271 521.96 497.416C523.421 498.487 524.737 501.55 525.029 504.307C525.614 510.433 531.168 512.117 534.53 507.064C535.699 505.226 538.038 503.848 539.938 503.848C541.838 503.848 544.469 502.469 545.931 500.785C547.393 499.1 549.877 497.722 551.485 497.722C553.239 497.722 555.87 496.497 557.478 494.812C559.232 493.281 563.909 490.064 567.856 487.767C571.948 485.47 575.749 483.02 576.626 482.254C577.357 481.488 578.964 480.876 580.28 480.876C581.595 480.876 583.934 479.497 585.396 477.813C586.857 476.128 589.196 474.75 590.658 474.75C592.119 474.75 593.581 474.137 594.02 473.372C594.458 472.606 598.551 469.849 602.936 467.246C613.314 461.12 614.921 457.904 610.244 453.31C608.198 451.319 606.59 448.409 606.59 446.878C606.59 445.346 605.128 441.977 603.52 439.68C601.766 437.229 600.743 434.626 601.328 433.707C601.766 432.941 600.889 431.104 599.282 429.572C597.674 428.041 596.358 425.284 596.358 423.446C596.358 421.609 595.043 418.852 593.435 417.321C591.827 415.789 590.512 413.032 590.512 411.195C590.512 409.357 589.196 406.6 587.588 405.069C585.98 403.537 584.665 401.24 584.665 400.168C584.665 398.943 583.349 396.187 581.742 394.042C580.134 391.898 578.818 388.836 578.818 387.304C578.818 385.62 577.503 381.791 575.895 378.728C574.287 375.512 572.972 371.836 572.972 370.611C572.972 369.386 571.948 366.936 570.779 365.404C569.61 363.72 568.587 359.891 568.587 356.828C568.587 352.846 567.563 350.396 565.079 348.099C562.74 345.955 561.717 343.811 562.302 341.82C562.594 340.289 561.571 336.154 559.963 332.938C557.917 328.956 556.893 324.208 556.893 318.389C556.893 311.804 556.163 309.2 553.97 307.056C551.485 304.759 551.047 302.308 551.047 292.66C551.047 286.228 550.024 278.265 548.854 274.896C545.931 266.473 545.931 245.951 548.854 243.501C550.316 242.122 551.047 238.6 551.047 232.015C551.047 224.511 551.631 221.907 553.97 219.763C555.578 218.232 556.893 215.475 556.893 213.791C556.893 209.809 575.749 189.9 579.403 189.9C580.718 189.9 583.788 188.369 586.127 186.684C590.073 183.468 591.535 183.468 613.021 184.08C632.023 184.693 636.262 185.306 639.77 187.756C646.201 192.197 652.34 195.413 656.286 196.485C658.333 196.945 662.718 199.854 666.08 202.917C669.441 205.827 673.242 208.277 674.703 208.277C676.019 208.277 682.596 213.791 689.028 220.529C695.605 227.267 703.06 234.312 705.544 236.303C712.122 241.204 743.694 277.346 751.002 288.372C754.51 293.579 759.918 300.624 763.134 303.993C766.203 307.516 768.834 311.344 768.834 312.569C768.834 313.948 771.319 318.083 774.389 321.758C777.458 325.433 780.382 329.568 780.82 330.794C781.259 332.019 784.62 337.379 788.421 342.433C792.075 347.64 795.144 352.54 795.144 353.306C795.144 354.225 796.46 356.062 798.068 357.594C799.675 359.125 800.991 361.882 800.991 363.72C800.991 365.404 803.622 369.539 806.838 372.908C810.053 376.278 812.684 380.413 812.684 382.25C812.684 384.088 813.707 386.385 814.877 387.457C816.192 388.529 819.846 395.115 823.062 402.006C826.278 409.051 830.224 415.942 831.832 417.321C833.294 418.852 834.609 421.302 834.609 422.681C834.609 424.059 835.925 426.509 837.533 428.041C839.14 429.572 840.456 432.329 840.456 434.32C840.456 439.833 845.133 441.671 849.664 437.995C851.711 436.311 854.634 434.932 856.242 434.932C857.703 434.932 860.188 433.554 861.65 431.869C863.112 430.185 865.304 428.806 866.473 428.806C867.643 428.806 870.42 427.122 872.759 424.978C875.097 422.987 877.874 421.609 878.898 422.068C879.921 422.374 882.113 421.455 883.575 419.618C885.037 417.933 887.668 416.555 889.422 416.555C891.176 416.555 893.807 415.177 895.268 413.492C896.73 411.807 899.361 410.429 901.115 410.429C902.869 410.429 905.5 409.051 906.961 407.366C908.423 405.528 910.469 404.456 911.346 404.916C912.37 405.222 915.001 403.997 917.339 401.853C919.678 399.862 922.309 398.331 923.332 398.177C928.302 398.024 929.763 385.466 925.232 382.863C923.624 381.944 922.309 379.647 922.309 377.656C922.309 375.665 920.993 372.908 919.386 371.377C917.778 369.846 916.462 367.242 916.462 365.711C916.462 364.179 915.001 360.81 913.393 358.513C911.639 356.062 910.762 353.306 911.2 352.387C911.785 351.621 910.762 350.09 909.154 349.171C907.546 348.252 906.231 346.108 906.231 344.577C906.231 341.514 907.546 340.901 912.223 341.361C913.393 341.514 915.731 340.135 917.193 338.451C919.239 336.154 921.724 335.388 927.717 335.388C932.687 335.388 937.364 334.316 940.872 332.325C943.942 330.64 948.034 329.262 950.081 329.262C952.127 329.262 955.343 328.19 957.096 326.812C958.851 325.587 963.966 324.208 968.497 324.055C973.175 323.749 977.56 322.524 979.168 320.992C980.629 319.614 983.845 318.542 986.476 318.542C989.107 318.542 992.907 317.164 994.954 315.479C997.877 313.029 1000.95 312.416 1008.69 312.416C1017.17 312.416 1019.07 311.957 1020.53 309.353C1021.85 307.362 1024.04 306.29 1027.11 306.29C1029.74 306.29 1034.42 304.912 1037.34 303.227C1040.41 301.543 1045.67 300.165 1049.18 300.165C1053.42 300.165 1056.93 299.093 1059.41 297.102C1061.9 294.958 1064.97 294.039 1068.62 294.345C1072.13 294.498 1075.2 293.732 1076.95 292.048C1078.85 290.21 1082.21 289.444 1088.35 289.444C1095.37 289.444 1097.27 288.832 1098.88 286.381C1100.19 284.084 1102.24 283.318 1106.62 283.318C1110.42 283.318 1113.93 282.246 1116.27 280.256C1119.05 277.958 1122.26 277.193 1128.55 277.193C1133.37 277.193 1137.17 276.58 1137.17 275.814C1137.17 273.67 1145.65 270.607 1148.28 271.679C1149.89 272.292 1152.08 271.373 1154.27 269.382C1156.91 266.626 1159.1 266.013 1165.38 266.319C1171.38 266.473 1174.01 265.86 1176.93 263.41C1178.98 261.725 1182.92 260.347 1185.7 260.347C1188.33 260.347 1192.13 258.969 1194.18 257.284C1198.86 253.455 1209.53 253.149 1210.84 256.671C1211.28 258.05 1211.72 262.338 1211.72 266.319C1211.72 270.301 1212.74 274.896 1214.06 276.886C1215.23 278.877 1216.69 282.859 1216.98 285.922C1217.42 288.985 1218.73 292.354 1220.05 293.273C1221.8 294.651 1222.39 297.255 1222.1 303.227C1221.95 308.894 1222.68 312.722 1224.87 316.551C1226.48 319.461 1227.8 324.361 1227.8 327.578C1227.8 331.406 1228.82 334.316 1230.72 336.154C1232.91 338.298 1233.64 340.901 1233.64 347.486C1233.64 354.531 1234.23 356.369 1236.71 358.053C1239.34 359.738 1239.64 361.116 1239.05 366.17C1238.47 370.611 1239.05 373.062 1241.1 375.818C1243 378.422 1243.87 381.944 1243.87 387.457C1243.87 393.124 1244.75 396.493 1246.8 399.249C1248.41 401.393 1249.72 405.222 1249.72 407.826C1249.72 410.429 1250.89 413.951 1252.5 415.636C1255.28 418.852 1257.47 430.338 1255.71 432.788C1254.11 435.085 1245.48 441.058 1243.73 441.058C1242.85 441.058 1238.76 443.508 1234.96 446.418C1231.01 449.328 1227.21 451.778 1226.33 451.778C1223.85 451.778 1213.62 457.904 1210.99 460.967C1209.53 462.651 1206.89 464.03 1205.14 464.03C1203.24 464.03 1201.05 464.949 1200.17 466.174C1199.15 467.399 1194.62 470.309 1190.09 472.606C1185.55 474.903 1178.68 479.191 1175.03 481.948C1171.23 484.704 1167.28 487.002 1166.11 487.002C1164.94 487.002 1162.75 488.38 1161.29 490.064C1159.83 491.749 1157.49 493.127 1156.03 493.127C1154.57 493.127 1153.11 493.74 1152.67 494.506C1152.23 495.271 1148.28 497.569 1143.75 499.713C1139.37 502.01 1134.98 505.226 1133.96 506.911C1132.79 508.748 1130.45 509.973 1128.26 509.973C1126.21 509.973 1123.29 511.352 1121.83 513.036C1120.36 514.721 1118.46 516.099 1117.59 516.099C1116.71 516.099 1114.37 517.478 1112.33 519.162C1110.28 520.847 1107.36 522.225 1105.6 522.225C1103.99 522.225 1100.49 524.675 1097.71 527.585C1094.93 530.648 1091.28 532.945 1089.38 532.945C1087.62 532.945 1085.43 534.323 1084.55 536.008C1083.53 537.999 1081.48 539.071 1078.85 539.071C1076.66 539.071 1073.59 540.449 1072.13 542.134C1070.67 543.818 1068.48 545.197 1067.16 545.197C1065.7 545.197 1061.9 547.953 1058.39 551.323C1055.03 554.692 1051.52 556.989 1050.64 556.53C1049.91 556.07 1047.43 557.448 1045.23 559.592C1042.9 561.89 1040.27 563.268 1038.95 562.808C1037.78 562.349 1035.59 563.268 1034.13 565.106C1032.66 566.79 1030.33 568.169 1029.01 568.169C1027.55 568.169 1023.46 570.925 1019.8 574.294C1016 577.817 1012.35 580.114 1011.03 579.654C1009.86 579.042 1007.96 580.42 1006.5 582.717C1004.75 585.474 1002.99 586.546 1001.24 586.087C999.631 585.627 997.438 586.546 995.977 588.231C994.661 589.762 992.03 591.14 990.276 591.14C988.668 591.14 984.722 593.897 981.506 597.266C978.437 600.635 974.49 603.392 972.736 603.392C971.128 603.392 968.644 604.77 967.182 606.455C965.866 608.139 963.089 609.518 961.189 609.518C959.289 609.518 956.95 610.59 955.927 611.815C954.904 613.04 953.004 614.112 951.542 614.112C950.081 614.112 945.549 617.328 941.311 621.31L933.71 628.508L934.295 638.768C934.587 645.813 935.61 650.101 937.364 652.092C938.972 653.93 939.849 657.452 939.849 661.893C939.849 666.794 940.726 669.551 942.772 671.542C945.257 673.839 945.696 676.289 945.696 685.631C945.696 694.82 946.28 697.729 948.765 701.405C951.104 704.621 951.688 707.071 951.104 710.44C950.519 713.656 950.958 716.107 953.004 718.71C954.612 720.854 955.927 723.458 955.927 724.683C955.927 729.277 959.435 730.502 973.467 730.502C982.968 730.502 988.376 731.115 990.276 732.646C991.884 733.718 998.169 735.097 1004.31 735.403C1010.3 735.862 1017.32 737.394 1019.95 738.772C1023.31 740.61 1028.57 741.223 1039.53 741.223C1052.1 741.223 1055.32 741.682 1058.97 744.285C1062.34 746.583 1065.84 747.348 1074.32 747.348C1082.95 747.348 1086.02 748.114 1088.94 750.411C1092.01 753.015 1094.93 753.474 1109.11 753.474C1122.7 753.474 1126.5 753.934 1130.89 756.537C1134.69 758.681 1139.22 759.6 1145.21 759.6C1150.62 759.6 1155.3 760.519 1157.05 761.897C1159.24 763.429 1164.65 764.194 1175.61 764.347C1187.75 764.501 1192.28 765.113 1196.37 767.41C1199.88 769.401 1204.41 770.32 1210.99 770.32C1217.71 770.32 1222.1 771.239 1225.9 773.383C1230.43 775.833 1234.23 776.446 1246.51 776.446C1259.37 776.446 1262.29 776.905 1265.95 779.509C1269.16 782.112 1271.94 782.572 1279.54 782.266C1293.28 781.806 1294.89 783.644 1294.45 799.877C1294.3 808.3 1293.43 813.66 1291.82 816.264C1290.06 819.173 1289.33 825.299 1288.89 840.767C1288.46 856.081 1287.58 862.667 1285.82 866.342C1284.07 869.711 1283.34 875.071 1283.34 883.188C1283.34 892.53 1282.75 896.206 1280.42 899.728C1277.93 903.556 1277.49 906.926 1277.49 920.402C1277.49 930.969 1276.91 937.248 1275.74 938.474C1274.72 939.546 1270.18 940.311 1265.65 940.311C1260.1 940.311 1256.74 941.077 1255.57 942.608C1254.25 944.14 1250.89 944.906 1244.75 944.906C1238.32 944.906 1234.67 945.825 1231.45 947.969C1227.8 950.419 1224.58 951.031 1212.74 951.031C1200.46 951.031 1197.69 951.491 1194.62 954.094C1191.69 956.392 1188.62 957.157 1181.46 957.157C1174.3 957.157 1171.08 957.923 1168.45 960.067C1165.53 962.517 1162.31 962.977 1150.77 963.13C1140.97 963.283 1136 963.896 1134.4 965.427C1133.08 966.652 1127.67 967.877 1121.53 968.184C1114.37 968.643 1109.99 969.715 1108.23 971.4C1106.19 973.391 1102.68 974.003 1093.18 974.003C1084.41 974.003 1079.58 974.769 1076.51 976.607C1074.18 977.985 1067.01 979.516 1060.87 980.129C1053.42 980.742 1048.6 981.967 1046.84 983.651C1045.09 985.336 1041.58 986.255 1036.61 986.255C1026.23 986.255 1022.29 991.002 1026.23 998.66C1027.11 1000.34 1028.28 1007.85 1029.16 1015.51C1029.89 1023.01 1031.06 1030.36 1031.79 1031.89C1032.66 1033.27 1033.69 1041.23 1034.13 1049.35C1034.86 1059.31 1035.73 1064.82 1037.2 1066.04C1038.36 1067.12 1039.24 1070.64 1039.24 1074.62C1039.24 1080.13 1040.12 1082.28 1043.63 1086.11C1047.43 1089.93 1048.74 1090.55 1052.84 1089.63C1055.32 1089.02 1058.39 1087.79 1059.56 1086.72C1060.73 1085.8 1066.72 1084.73 1073.01 1084.11C1080.75 1083.5 1085.28 1082.43 1087.18 1080.75C1089.38 1078.75 1092.88 1078.14 1103.56 1078.14C1114.23 1078.14 1117.73 1077.53 1119.93 1075.54C1121.68 1073.85 1126.36 1072.63 1133.96 1072.02C1140.24 1071.56 1146.82 1070.18 1148.87 1068.8C1151.35 1067.12 1156.61 1066.2 1166.11 1066.04C1174.74 1065.89 1181.02 1064.97 1182.92 1063.75C1184.68 1062.52 1190.52 1061.3 1195.93 1060.84C1201.34 1060.53 1207.04 1059 1208.94 1057.62C1211.57 1055.78 1215.81 1055.17 1226.04 1055.17C1237.59 1055.17 1240.37 1054.71 1243.44 1052.11C1246.21 1049.81 1249.43 1049.04 1255.71 1049.04C1261.56 1049.04 1266.09 1047.97 1269.75 1045.98C1273.98 1043.68 1278.08 1042.92 1286.99 1042.92C1294.89 1042.92 1299.71 1042.15 1301.76 1040.77C1303.36 1039.55 1309.94 1038.02 1316.37 1037.41C1322.66 1036.79 1329.24 1035.41 1330.84 1034.34C1332.6 1032.96 1338.01 1032.2 1345.46 1032.2C1356.71 1032.2 1357.59 1031.89 1361.54 1027.6C1365.34 1023.47 1365.63 1022.4 1365.34 1011.22C1365.19 1001.72 1365.78 998.047 1368.12 993.606C1370.31 989.165 1371.04 984.877 1371.04 976.3C1371.04 967.724 1371.77 963.283 1373.96 959.148C1376.45 954.247 1376.89 950.419 1376.89 935.258C1376.89 921.321 1377.47 916.114 1379.37 912.286C1380.98 909.07 1381.86 902.944 1382.15 894.215C1382.29 885.945 1383.32 879.359 1384.63 876.45C1386.24 873.234 1387.12 865.576 1387.56 849.343C1388.14 831.425 1388.73 826.371 1390.63 824.074C1392.38 822.083 1392.96 818.255 1392.96 809.985C1393.11 802.021 1393.84 796.814 1395.89 792.526C1398.23 787.472 1398.66 783.031 1398.81 767.257C1398.81 751.483 1399.25 747.348 1401.44 744.285C1403.05 741.682 1404.22 736.016 1404.95 726.674C1405.39 719.017 1406.41 710.594 1406.85 707.837C1407.73 703.702 1407.29 702.017 1404.51 698.955C1401.3 695.432 1400.27 695.126 1389.02 695.432C1379.52 695.738 1376.45 695.279 1374.25 693.288C1372.21 691.297 1368.7 690.685 1359.78 690.685C1350.28 690.685 1347.36 690.072 1344.29 687.622C1341.22 685.018 1338.44 684.559 1325.44 684.559C1313.16 684.559 1309.21 683.946 1304.53 681.496C1300.29 679.199 1295.91 678.433 1288.16 678.433C1279.25 678.433 1277.35 677.974 1276.18 675.523C1274.72 672.92 1272.67 672.614 1257.03 672.46C1242.71 672.307 1238.32 671.695 1234.08 669.244C1230.28 667.1 1226.92 666.641 1220.63 667.1C1213.76 667.56 1211.57 667.1 1208.79 664.65C1205.87 662.047 1203.24 661.587 1189.94 661.434C1181.46 661.281 1173.42 661.281 1172.11 661.434C1170.94 661.587 1168.6 660.209 1167.14 658.524C1164.94 656.074 1162.75 655.461 1154.13 655.461C1146.38 655.461 1142.29 654.696 1138.05 652.245C1133.37 649.642 1130.3 649.182 1119.78 649.489C1102.09 650.101 1099.17 647.651 1109.4 640.912C1112.62 638.768 1115.98 637.084 1116.86 637.084C1117.73 637.084 1121.09 634.634 1124.46 631.724C1127.67 628.814 1131.47 626.364 1132.79 626.364C1134.1 626.364 1136.44 624.985 1137.9 623.301C1139.37 621.616 1142 620.238 1143.75 620.238C1145.5 620.238 1148.14 618.86 1149.6 617.175C1151.06 615.49 1153.4 614.112 1154.71 614.112C1156.17 614.112 1160.27 611.355 1163.92 607.833C1167.72 604.464 1171.38 602.014 1172.11 602.473C1172.69 602.932 1175.18 601.554 1177.37 599.41C1179.56 597.266 1182.19 595.888 1183.22 596.347C1184.24 596.654 1186.29 595.735 1187.75 594.05C1189.06 592.519 1191.55 591.14 1193.01 591.14C1194.62 591.14 1198.71 588.537 1202.22 585.474C1205.87 582.411 1209.82 579.654 1211.13 579.501C1212.3 579.348 1214.64 577.97 1216.1 576.592C1217.42 575.366 1220.05 573.835 1221.95 573.529C1223.85 573.222 1226.33 571.844 1227.8 570.466C1229.11 569.241 1231.16 568.169 1232.18 568.169C1233.35 568.169 1237.3 565.412 1241.1 562.043C1244.9 558.674 1248.99 555.917 1250.16 555.917C1251.33 555.917 1253.38 554.539 1254.84 552.854C1256.3 551.169 1258.93 549.791 1260.68 549.791C1262.44 549.791 1265.07 548.413 1266.53 546.728C1267.99 545.044 1270.48 543.665 1271.94 543.665C1273.55 543.665 1277.49 541.215 1280.85 538.305C1284.07 535.396 1287.87 532.945 1289.19 532.945C1290.5 532.945 1292.84 531.567 1294.3 529.882C1295.76 528.198 1297.96 526.819 1298.98 526.819C1300.15 526.819 1302.78 525.441 1304.83 523.756C1306.87 522.072 1309.5 520.693 1310.67 520.693C1311.84 520.693 1315.64 518.243 1319 515.333C1322.51 512.424 1326.31 509.973 1327.48 509.973C1328.65 509.973 1330.84 508.595 1332.31 506.911C1333.77 505.226 1336.4 503.848 1338.15 503.848C1339.91 503.848 1342.54 502.469 1344 500.785C1345.46 499.1 1347.8 497.722 1349.11 497.722C1350.43 497.722 1354.23 495.271 1357.45 492.362C1360.81 489.452 1364.32 487.002 1365.48 487.002C1371.48 487.002 1372.94 475.516 1368.12 465.561C1366.51 462.192 1365.19 456.526 1365.19 453.003C1365.19 449.328 1364.17 444.887 1363 442.896C1361.68 441.058 1360.37 437.076 1359.93 433.86C1359.64 430.797 1358.32 426.969 1357.01 425.59C1355.55 423.906 1354.52 419.465 1354.38 413.492C1354.23 406.141 1353.5 403.537 1351.31 401.853C1349.26 400.168 1348.53 398.024 1348.68 393.277C1348.97 389.142 1347.95 385.466 1346.19 382.71C1344.14 379.8 1343.27 375.971 1343.27 369.999C1343.27 363.107 1342.68 361.269 1340.34 359.891C1337.86 358.513 1337.42 356.828 1337.57 351.468C1337.86 346.414 1337.13 343.658 1335.08 341.207C1332.74 338.451 1332.16 335.847 1332.31 329.722C1332.45 323.596 1331.87 320.992 1329.82 319.155C1328.07 317.317 1327.19 314.407 1327.19 310.119C1327.19 305.678 1326.31 302.921 1324.27 300.93C1322.07 298.786 1321.34 296.183 1321.34 289.904C1321.34 283.778 1320.47 280.409 1318.42 277.652C1316.81 275.355 1315.5 271.373 1315.5 268.31C1315.5 265.247 1314.47 261.725 1313.3 260.347C1311.99 258.815 1310.67 253.761 1310.38 248.861C1310.09 243.96 1308.77 238.906 1307.46 237.375C1306.29 235.997 1305.26 232.015 1305.26 228.646C1305.26 224.511 1304.39 221.601 1302.34 219.763C1300.15 217.619 1299.42 215.016 1299.42 208.431C1299.42 202.764 1298.39 197.557 1296.49 193.729C1294.89 190.359 1293.57 185.612 1293.57 183.008C1293.57 180.558 1292.26 176.729 1290.65 174.585C1288.75 172.135 1287.72 168.307 1287.72 163.865C1287.72 160.037 1286.7 155.289 1285.39 153.451C1284.22 151.614 1282.9 148.398 1282.75 146.254C1282.61 144.11 1281.29 140.281 1279.98 137.524C1278.66 134.768 1277.35 131.245 1276.91 129.714C1275.89 126.038 1265.8 126.192 1258.49 130.173C1255.28 131.858 1251.48 133.236 1249.72 133.236C1248.11 133.236 1244.31 134.615 1241.39 136.299C1238.03 138.137 1233.06 139.362 1228.82 139.362C1223.85 139.362 1220.49 140.281 1217.86 142.425C1215.37 144.569 1212.3 145.488 1208.65 145.182C1205.14 145.028 1202.07 145.794 1200.32 147.479C1198.71 149.01 1195.2 150.082 1191.84 150.082C1188.62 150.082 1183.51 151.461 1180.29 153.145C1177.08 154.83 1172.25 156.208 1169.33 156.208C1165.97 156.208 1163.34 157.28 1161.58 159.271C1159.68 161.721 1157.34 162.334 1150.62 162.334C1143.9 162.334 1141.7 162.946 1139.51 165.55C1137.47 168.153 1135.86 168.613 1131.62 168C1127.38 167.234 1125.92 167.694 1123.14 170.757C1121.24 172.901 1118.46 174.585 1116.71 174.585C1112.91 174.585 1099.17 159.577 1099.17 155.289C1099.17 153.605 1096.83 149.929 1094.05 147.019C1091.28 144.11 1088.94 140.74 1088.94 139.362C1088.94 137.984 1083.97 131.092 1077.98 124.201C1071.98 117.156 1067.01 110.418 1067.01 109.193C1067.01 105.364 1012.35 49.619 1006.79 47.6282C1003.87 46.5562 999.631 43.1869 997 39.6646C993.784 35.5297 991.446 33.8451 989.692 34.4576C988.084 34.9171 985.307 33.0793 981.506 29.0975C978.291 25.7284 974.344 22.9718 972.736 22.9718C970.982 22.9718 968.351 21.5934 966.89 19.9088C965.428 18.2242 962.797 16.8459 961.043 16.8459C959.289 16.8459 956.658 15.4677 955.196 13.7831C953.442 11.7921 950.665 10.7201 947.157 10.7201C944.234 10.7201 941.311 10.1075 940.58 9.3418C939.703 8.57605 936.049 6.12573 932.248 3.98169L925.378 0H888.983C854.488 0 852.441 0.153076 849.957 3.06287ZM906.377 106.589C907.254 107.814 909.592 108.733 911.346 108.733C913.1 108.733 916.316 110.111 918.362 111.796C920.409 113.481 922.894 114.859 924.063 114.859C925.232 114.859 927.425 115.931 929.033 117.156C930.494 118.381 932.833 119.453 934.295 119.453C935.61 119.453 938.241 121.291 940.141 123.588C943.795 128.182 954.027 137.065 956.95 137.984C958.704 138.596 976.975 156.821 981.068 162.028C982.383 163.712 984.722 167.081 986.037 169.532C987.499 171.829 992.907 178.72 997.877 184.693C1002.99 190.666 1007.09 197.098 1007.09 198.782C1007.09 204.142 999.777 208.277 990.422 208.277C983.845 208.277 981.945 208.89 980.483 211.34C979.46 213.025 977.56 214.403 976.244 214.403C973.175 214.403 966.159 204.908 966.159 200.926C966.159 199.395 963.528 195.566 960.312 192.503C957.096 189.594 954.466 186.071 954.466 184.999C954.466 181.63 944.38 170.144 939.264 167.694C936.779 166.469 932.102 163.406 928.886 160.802C925.671 158.352 921.432 156.361 919.532 156.208C917.632 156.208 913.977 154.83 911.346 153.145C906.669 150.082 906.669 150.082 902.869 153.145C900.823 154.83 897.607 156.208 895.707 156.208C891.029 156.208 884.306 163.712 884.306 168.919C884.306 171.369 883.136 173.513 881.382 174.585C878.751 176.117 878.459 177.802 878.459 190.359C878.459 201.998 879.044 205.061 881.382 208.277C882.99 210.421 884.306 214.556 884.306 217.466C884.306 220.376 885.621 224.511 887.229 226.655C891.176 232.015 890.883 234.925 885.621 239.519C881.967 242.735 879.628 243.501 873.197 243.501C867.35 243.501 863.989 244.42 861.065 246.717C858.142 248.861 855.365 249.627 851.272 249.32L845.572 248.861L844.841 241.05C844.402 236.762 843.233 232.168 842.356 230.943C841.333 229.718 840.164 225.736 839.579 222.06C839.14 218.232 837.679 213.637 836.656 211.8C833.586 206.746 833.732 153.451 836.802 149.163C837.971 147.632 838.994 143.956 838.994 141.2C838.994 137.371 840.894 133.849 846.449 126.651C850.688 121.444 855.072 116.697 856.388 116.237C857.703 115.625 860.042 113.787 861.504 111.949C863.112 110.265 865.596 108.733 867.058 108.733C868.666 108.733 871.443 107.508 873.197 105.976C875.828 103.832 878.898 103.526 890.445 103.832C900.53 104.139 905.061 105.058 906.377 106.589ZM339.836 1173.86C344.075 1175.39 352.845 1176 371.555 1176.15C393.041 1176.15 398.888 1176.61 406.634 1179.22C414.82 1181.97 420.082 1182.28 454.285 1182.28C486.734 1182.28 493.603 1182.74 497.842 1184.73C503.543 1187.49 504.273 1191.16 499.889 1195.3C498.281 1196.83 496.965 1199.28 496.965 1200.66C496.965 1202.04 495.65 1204.49 493.896 1206.17C492.288 1207.7 487.903 1213.68 484.395 1219.34C480.741 1225.01 477.233 1230.06 476.356 1230.52C475.625 1231.13 475.04 1232.51 475.04 1233.89C475.04 1235.27 472.555 1239.4 469.632 1243.23C466.709 1246.91 460.131 1256.56 455.016 1264.52C450.046 1272.48 443.468 1281.83 440.691 1285.35C437.914 1288.72 435.575 1292.7 435.575 1294.08C435.575 1295.45 433.237 1298.82 430.46 1301.73C427.682 1304.64 425.344 1308.32 425.344 1310.16C425.344 1311.84 422.713 1316.13 419.497 1319.35C416.281 1322.56 413.65 1326.39 413.65 1327.62C413.65 1328.84 411.166 1332.98 408.096 1336.8C405.027 1340.63 401.08 1346.15 399.18 1348.75C395.38 1354.72 392.164 1355.18 390.41 1350.28C389.679 1348.29 388.071 1345.84 386.756 1344.77C385.44 1343.54 384.71 1341.55 385.148 1340.02C385.587 1338.64 384.71 1336.34 382.956 1334.66C380.909 1332.67 380.032 1329.91 380.032 1325.47C380.032 1321.03 379.155 1318.27 377.109 1316.28C375.501 1314.75 374.186 1312.3 374.186 1310.62C374.186 1309.08 372.87 1306.48 371.262 1304.8C369.216 1302.65 368.339 1299.9 368.631 1296.53C368.777 1293.31 367.754 1289.94 365.708 1287.34C364.1 1285.04 362.931 1282.28 363.369 1281.21C363.808 1280.14 362.785 1278 361.031 1276.46C359.13 1274.63 358.107 1271.72 358.107 1268.04C358.107 1264.37 357.084 1261.46 355.184 1259.62C353.576 1258.09 352.261 1255.18 352.261 1253.19C352.261 1251.04 350.945 1247.67 349.337 1245.53C347.729 1243.39 346.414 1239.4 346.414 1236.65C346.414 1233.74 345.245 1230.67 343.491 1228.99C341.883 1227.46 340.567 1224.7 340.567 1222.86C340.567 1221.18 339.544 1218.27 338.375 1216.59C337.206 1215.05 336.182 1211.53 336.182 1208.93C336.182 1206.17 335.013 1202.96 333.259 1201.42C331.651 1199.89 330.336 1197.14 330.336 1195.3C330.336 1193.46 329.02 1190.09 327.412 1187.95C324.635 1184.27 323.466 1174.78 325.512 1172.63C327.12 1170.95 333.551 1171.41 339.836 1173.86ZM359.861 1407.25C359.715 1409.24 356.938 1413.99 353.722 1417.51C350.507 1421.19 347.876 1425.32 347.876 1426.55C347.876 1427.77 345.245 1431.91 342.029 1435.58C338.813 1439.26 336.182 1443.09 336.182 1444.31C336.036 1445.54 333.551 1449.52 330.336 1453.19C327.266 1456.87 325.074 1460.7 325.366 1461.62C325.658 1462.54 323.32 1466.06 320.104 1469.43C316.888 1472.64 314.257 1476.63 314.257 1478C314.257 1479.38 311.626 1483.67 308.411 1487.5C305.195 1491.33 302.564 1495.46 302.564 1496.69C302.564 1497.91 300.079 1501.89 296.864 1505.57C293.794 1509.25 290.14 1514.61 288.824 1517.36C287.509 1520.12 284.001 1525.02 281.224 1528.08C278.593 1531.15 276.254 1534.82 276.254 1536.35C276.254 1537.73 273.623 1541.71 270.408 1545.08C267.192 1548.45 264.561 1551.97 264.561 1553.05C264.561 1554.12 262.076 1558.1 258.86 1561.93C255.791 1565.91 252.868 1570.5 252.283 1572.49C251.698 1574.33 247.606 1580 243.074 1585.05C236.643 1592.4 234.597 1593.93 232.989 1592.56C231.82 1591.64 230.943 1589.95 230.943 1588.88C230.943 1587.96 229.627 1585.82 228.019 1584.29C226.411 1582.76 225.096 1579.69 225.096 1577.4C225.096 1575.25 222.757 1569.28 219.834 1564.22C217.057 1559.32 214.28 1553.2 213.841 1550.59C213.403 1548.14 212.233 1544.93 211.21 1543.7C208.141 1539.72 203.171 1528.39 203.171 1525.48C203.171 1523.95 201.856 1521.5 200.248 1519.97C198.64 1518.43 197.324 1515.68 197.324 1513.84C197.324 1512 196.009 1509.25 194.401 1507.71C192.793 1506.18 191.478 1503.73 191.478 1502.35C191.478 1500.98 190.162 1498.53 188.554 1496.99C186.947 1495.46 185.631 1492.86 185.631 1491.33C185.631 1489.64 184.316 1486.58 182.854 1484.44C181.246 1482.45 180.223 1479.84 180.661 1478.77C181.1 1477.7 180.077 1475.55 178.323 1474.02C176.715 1472.49 175.399 1469.73 175.399 1467.9C175.399 1466.06 174.084 1463.3 172.476 1461.77C170.868 1460.24 169.553 1457.48 169.553 1455.64C169.553 1453.81 168.237 1451.05 166.63 1449.52C165.022 1447.99 163.706 1445.38 163.706 1443.7C163.706 1442.01 162.683 1439.87 161.368 1438.95C159.467 1437.42 156.836 1429.76 155.959 1422.72C155.813 1421.49 156.983 1420.42 158.737 1420.27C160.344 1420.12 163.268 1419.04 165.314 1417.82C168.091 1415.83 176.13 1415.21 205.51 1414.6C234.304 1413.99 243.367 1413.22 247.606 1411.39C251.991 1409.55 258.568 1408.94 276.839 1408.94C294.525 1408.94 301.102 1408.48 303.295 1406.79C307.972 1403.42 310.749 1403.12 336.182 1403.42L360.3 1403.58L359.861 1407.25Z" fill="black"/>
<path d="M619.173 228.034C617.565 229.871 614.788 231.25 613.034 231.25C608.795 231.25 602.218 241.357 602.218 247.789C602.218 250.24 600.902 253.456 599.294 254.987C596.81 257.284 596.371 259.735 596.371 269.383C596.371 278.112 597.102 282.553 599.294 286.841C600.902 289.904 602.218 294.958 602.218 297.868C602.218 302.615 604.556 309.047 610.695 321.146C611.719 323.137 613.18 326.2 614.203 328.037C615.08 330.028 616.688 333.244 617.711 335.235C621.219 342.28 637.298 360.504 651.183 373.215C657.615 379.188 661.123 381.179 664.485 381.332C666.969 381.332 670.77 382.71 672.816 384.395C677.201 388.07 686.409 388.377 690.502 385.161C692.11 383.935 694.449 382.863 695.764 382.863C697.08 382.863 701.172 379.494 704.973 375.512C710.819 369.387 712.135 366.936 712.573 361.27C712.866 357.594 714.327 351.009 715.643 346.721C718.128 338.911 718.128 338.758 715.058 333.244C712.719 329.263 711.842 324.975 711.842 319.155C711.842 313.029 710.965 309.507 709.065 306.75C707.457 304.759 706.434 302.156 706.873 301.084C707.311 300.012 706.288 297.868 704.534 296.336C702.926 294.805 701.611 292.048 701.611 290.211C701.611 288.373 700.295 285.616 698.687 284.085C697.08 282.553 695.764 279.797 695.764 277.959C695.764 276.274 693.133 272.139 689.917 268.77C686.702 265.554 684.071 261.726 684.071 260.347C684.071 257.284 670.77 243.501 667.846 243.501C666.677 243.501 663.023 240.745 659.953 237.376C656.884 234.006 652.937 231.25 651.33 231.25C649.722 231.25 647.237 230.178 645.921 228.799C644.167 227.115 639.636 226.043 632.62 225.583C623.12 224.971 621.658 225.277 619.173 228.034Z" fill="black"/>
<path d="M1357.02 547.035C1354.83 550.404 1354.53 644.588 1356.58 647.192C1358.04 649.029 1366.52 649.336 1407.74 649.336C1455.68 649.182 1470.15 649.948 1474.97 652.552C1476.29 653.317 1495 653.93 1516.63 654.083C1538.26 654.083 1561.21 654.849 1567.64 655.768C1574.08 656.687 1585.77 657.759 1593.66 658.371C1603.16 658.984 1608.42 659.903 1609.15 661.281C1611.35 664.956 1609.59 772.617 1607.25 785.635C1605.79 793.292 1604.92 811.21 1604.48 840.001C1604.04 875.225 1603.45 884.26 1601.41 890.233C1599.51 895.593 1598.92 901.872 1599.22 914.43C1599.36 927.294 1598.92 931.888 1597.46 932.96C1594.54 934.951 1573.05 933.267 1566.62 930.51C1562.67 928.672 1556.24 928.06 1543.23 928.06C1527.59 928.06 1524.82 928.519 1521.6 931.123C1519.56 932.807 1516.63 934.186 1515.02 934.186C1511.52 934.186 1487.98 959.301 1487.98 963.13C1487.98 964.661 1486.67 967.112 1485.06 968.643C1482.72 970.787 1482.14 973.391 1482.14 980.895C1482.14 986.255 1481.26 992.84 1480.09 995.597C1478.77 999.272 1477.9 1010.3 1477.31 1031.59C1477.02 1048.59 1476.29 1063.29 1475.71 1064.21C1475.12 1065.12 1473.51 1065.89 1472.05 1065.89C1470.59 1065.89 1467.96 1067.58 1466.06 1069.72C1464.01 1072.02 1461.67 1073.24 1460.21 1072.78C1458.9 1072.32 1456.56 1073.39 1455.1 1075.08C1453.63 1076.76 1449.69 1079.52 1446.47 1081.05C1443.11 1082.58 1439.16 1085.34 1437.7 1087.18C1436.09 1088.86 1434.19 1090.39 1433.46 1090.39C1432.73 1090.39 1428.93 1093 1425.28 1096.06C1415.92 1104.02 1371.05 1151.65 1371.05 1153.64C1371.05 1154.41 1368.57 1158.7 1365.5 1162.98C1362.28 1167.27 1358.77 1172.94 1357.6 1175.39C1356.29 1177.99 1353.95 1181.36 1352.19 1182.89C1350.44 1184.58 1349.13 1187.33 1349.13 1189.17C1349.13 1191.01 1347.81 1193.77 1346.2 1195.3C1344.45 1196.83 1343.57 1199.28 1344.01 1200.66C1344.45 1202.04 1343.57 1204.49 1341.82 1206.02C1340.21 1207.55 1338.89 1210.31 1338.89 1212.14C1338.89 1213.98 1337.58 1216.74 1335.97 1218.27C1334.22 1219.8 1333.34 1222.1 1333.78 1223.32C1336.12 1229.76 1321.35 1232.67 1316.24 1226.69C1314.78 1225.01 1312 1223.63 1310.1 1223.63C1308.2 1223.63 1304.11 1222.25 1301.04 1220.57C1297.67 1218.88 1293 1217.81 1289.2 1217.96C1284.81 1218.12 1282.47 1217.35 1281.16 1215.51C1280.13 1213.98 1277.36 1212.91 1274.58 1212.91C1272.1 1212.91 1268.3 1211.53 1266.25 1209.85C1263.62 1207.7 1260.26 1206.78 1254.85 1206.78C1249.15 1206.78 1246.66 1206.02 1244.62 1203.72C1242.72 1201.58 1240.09 1200.66 1235.85 1200.66C1231.61 1200.66 1228.98 1199.74 1227.08 1197.6C1225.18 1195.45 1222.55 1194.53 1217.72 1194.53C1213.63 1194.53 1209.1 1193.31 1206.17 1191.47C1203.54 1189.78 1199.6 1188.41 1197.4 1188.41C1195.07 1188.41 1192 1187.33 1190.39 1186.11C1188.93 1184.88 1184.98 1183.81 1181.76 1183.81C1178.55 1183.81 1173.73 1182.43 1171.09 1180.75C1168.46 1179.06 1164.08 1177.69 1161.3 1177.69C1157.79 1177.69 1155.6 1176.77 1154.43 1174.62C1152.82 1172.02 1150.92 1171.56 1143.47 1171.56C1135.87 1171.56 1133.97 1171.1 1132.51 1168.5C1131.05 1166.2 1129 1165.43 1124.61 1165.43C1120.52 1165.43 1117.74 1164.52 1115.99 1162.37C1114.09 1160.07 1111.75 1159.31 1107.22 1159.62C1103.57 1159.62 1099.62 1158.85 1097.57 1157.32C1095.67 1155.79 1092.6 1154.71 1090.7 1154.71C1088.8 1154.71 1085.3 1153.34 1082.96 1151.65C1079.45 1148.9 1076.96 1148.59 1067.46 1148.9C1056.35 1149.35 1056.06 1149.51 1055.62 1153.49C1055.33 1155.63 1054.16 1158.39 1052.99 1159.31C1051.82 1160.38 1050.95 1163.75 1050.95 1166.97C1050.95 1170.34 1049.78 1174.32 1048.02 1176.61C1046.12 1179.06 1045.1 1182.74 1045.1 1186.72C1045.1 1191.16 1044.22 1193.77 1042.18 1195.6C1040.28 1197.29 1039.25 1200.2 1039.25 1203.41C1039.25 1206.32 1037.94 1210.46 1036.48 1212.76C1034.43 1215.82 1033.7 1219.04 1033.99 1224.24C1034.28 1230.06 1033.7 1232.21 1031.36 1234.5L1028.44 1237.41L1032.68 1242.01C1035.01 1244.46 1037.94 1246.6 1039.4 1246.6C1040.71 1246.6 1043.49 1247.98 1045.54 1249.66C1047.73 1251.5 1051.53 1252.73 1054.89 1252.73C1057.96 1252.73 1061.76 1253.8 1063.22 1255.02C1064.83 1256.25 1068.19 1257.32 1070.53 1257.32C1073.02 1257.32 1077.11 1258.7 1079.45 1260.38C1082.37 1262.38 1086.32 1263.45 1091.43 1263.45C1097.57 1263.45 1099.47 1264.06 1100.94 1266.51C1102.4 1268.81 1104.44 1269.57 1108.83 1269.57C1112.92 1269.57 1115.7 1270.49 1117.45 1272.64C1119.5 1274.93 1121.98 1275.7 1127.54 1275.7C1132.65 1275.7 1136.16 1276.77 1138.65 1278.76C1140.69 1280.45 1144.35 1281.83 1146.69 1281.83C1149.17 1281.83 1152.39 1282.9 1153.85 1284.12C1155.46 1285.35 1159.4 1286.42 1162.76 1286.42C1165.98 1286.42 1171.09 1287.8 1174.16 1289.48C1177.09 1291.17 1180.89 1292.55 1182.5 1292.55C1184.1 1292.55 1187.9 1293.92 1190.83 1295.61C1194.19 1297.45 1199.16 1298.67 1203.25 1298.67C1208.66 1298.67 1210.56 1299.28 1211.73 1301.73C1212.9 1304.03 1214.8 1304.8 1218.89 1304.8C1222.25 1304.8 1225.91 1306.02 1228.1 1307.86C1230.58 1309.85 1233.8 1310.77 1237.75 1310.46C1240.96 1310.46 1245.79 1311.38 1248.56 1312.76C1256.31 1316.59 1267.42 1320.26 1274.58 1321.49C1278.23 1322.1 1282.91 1323.79 1285.25 1325.32C1287.59 1327 1290.66 1327.77 1293.14 1327.31C1295.77 1326.85 1297.82 1327.62 1300.01 1330.07C1302.5 1332.67 1304.84 1333.44 1311.85 1333.74C1317.11 1333.89 1321.5 1334.81 1322.82 1336.19C1324.13 1337.42 1327.64 1338.49 1330.56 1338.49C1334.22 1338.49 1336.85 1339.56 1338.46 1341.55C1340.5 1344 1342.84 1344.61 1349.27 1344.61C1355.56 1344.61 1358.04 1345.38 1360.09 1347.68C1361.99 1349.97 1364.62 1350.74 1369.73 1350.74C1375.29 1350.74 1377.19 1351.35 1378.36 1353.8C1379.67 1356.25 1381.43 1356.87 1388.44 1356.87C1395.02 1356.87 1397.51 1357.48 1399.55 1359.93C1401.45 1362.07 1404.08 1362.99 1408.32 1362.99C1411.83 1362.99 1415.34 1363.91 1416.22 1365.14C1417.09 1366.21 1421.92 1367.59 1426.89 1368.2C1431.86 1368.66 1436.97 1370.19 1438.29 1371.42C1439.6 1372.64 1442.96 1373.71 1445.89 1373.71C1448.81 1373.71 1452.61 1375.09 1454.8 1376.78C1457.43 1378.92 1460.65 1379.84 1466.5 1379.84C1472.49 1379.84 1474.97 1380.6 1477.02 1382.9C1478.92 1385.04 1481.55 1385.96 1485.79 1385.96C1490.03 1385.96 1492.66 1386.88 1494.56 1389.03C1496.31 1391.17 1498.21 1391.63 1501.28 1391.02C1509.32 1389.33 1512.98 1397.91 1506.84 1403.73C1504.35 1406.03 1503.92 1407.71 1504.65 1412.3C1505.38 1416.75 1504.94 1418.74 1502.75 1421.03C1500.55 1423.33 1499.82 1426.55 1499.38 1435.12C1499.09 1442.78 1498.21 1447.22 1496.46 1449.67C1494.85 1451.82 1493.83 1455.64 1493.83 1459.93C1493.83 1464.68 1492.95 1467.44 1490.91 1469.43C1488.57 1471.73 1487.98 1474.18 1487.98 1481.99C1487.98 1489.64 1487.25 1492.86 1485.06 1495.77C1483.45 1498.07 1482.14 1502.05 1482.14 1505.26C1481.99 1511.39 1480.09 1514.76 1475.27 1517.36C1472.93 1518.74 1413.58 1519.2 1239.65 1519.2H1007.1L1006.22 1522.88C1005.78 1525.02 1005.93 1545.85 1006.66 1569.13L1007.83 1611.7L1011.48 1612.62C1013.53 1613.23 1056.65 1613.84 1107.22 1614C1157.94 1614.15 1279.4 1614.92 1377.48 1615.83C1511.37 1616.91 1556.1 1616.91 1557.56 1615.53C1558.73 1614.61 1559.6 1611.24 1559.6 1608.02C1559.6 1604.35 1560.63 1601.44 1562.53 1599.6C1564.87 1597.3 1565.45 1594.85 1565.45 1586.28C1565.45 1578.93 1566.18 1574.49 1567.94 1571.73C1569.4 1569.43 1570.71 1565.45 1570.86 1562.54C1571.01 1559.78 1572.17 1555.95 1573.34 1554.12C1574.95 1551.82 1575.68 1547.23 1575.68 1541.1C1575.68 1533.14 1576.12 1531.15 1578.61 1529.61C1580.94 1528.08 1581.53 1525.94 1581.53 1519.05C1581.53 1512.46 1582.26 1509.86 1584.45 1507.71C1586.79 1505.57 1587.38 1502.97 1587.38 1495.46C1587.38 1487.81 1587.96 1485.36 1590.3 1483.21C1592.78 1480.91 1593.22 1479.23 1592.49 1474.18C1591.76 1469.12 1592.2 1467.13 1594.54 1464.22C1596.44 1461.92 1597.61 1458.25 1597.75 1454.27C1598.05 1443.55 1598.63 1441.1 1601.12 1438.19C1602.58 1436.5 1603.45 1432.83 1603.45 1428.54C1603.45 1423.64 1604.33 1420.88 1606.38 1418.89C1608.72 1416.59 1609.3 1414.14 1609.3 1405.11C1609.3 1396.07 1609.89 1393.62 1612.22 1391.32C1614.42 1389.33 1615.15 1386.88 1614.86 1381.98C1614.71 1377.39 1615.59 1374.32 1617.34 1372.18C1619.09 1370.19 1620.12 1365.75 1620.7 1358.4C1621.14 1352.12 1622.16 1347.06 1623.33 1345.99C1624.5 1345.07 1625.38 1341.4 1625.38 1337.72C1625.38 1333.74 1626.26 1330.37 1627.57 1329.3C1628.74 1328.23 1629.76 1326.54 1629.76 1325.62C1629.62 1322.41 1623.92 1316.74 1620.26 1316.28C1618.22 1316.13 1615.29 1314.75 1613.83 1313.37C1612.08 1311.69 1608.57 1310.92 1602.87 1310.92C1596.58 1310.92 1593.37 1310.16 1590.74 1307.86C1588.25 1305.87 1584.75 1304.8 1580.51 1304.8C1576.27 1304.8 1572.47 1303.72 1569.69 1301.58C1566.62 1299.28 1563.7 1298.67 1558.14 1298.82C1552.73 1299.13 1550.1 1298.52 1547.91 1296.37C1545.86 1294.38 1543.09 1293.62 1539.29 1293.77C1535.34 1294.08 1533.15 1293.31 1531.1 1291.01C1529.06 1288.56 1526.57 1287.95 1519.85 1287.95C1513.12 1287.95 1510.79 1287.34 1508.88 1284.89C1507.13 1282.74 1504.5 1281.83 1500.26 1281.83C1496.31 1281.83 1493.1 1280.75 1490.91 1278.76C1488.42 1276.47 1485.5 1275.7 1479.07 1275.7C1472.78 1275.7 1470.3 1275.09 1469.27 1273.25C1468.4 1271.72 1465.77 1270.49 1462.55 1270.34C1459.63 1270.03 1455.68 1268.81 1453.63 1267.43C1451.44 1265.9 1447.06 1264.98 1442.23 1264.98C1436.24 1264.98 1433.76 1264.21 1431.71 1261.92C1429.37 1259.16 1429.37 1258.24 1430.98 1251.66C1432 1247.52 1435.07 1241.39 1437.85 1237.87C1440.48 1234.35 1442.67 1230.67 1442.67 1229.45C1442.67 1228.38 1445.3 1224.4 1448.52 1220.57C1451.59 1216.74 1454.51 1212.45 1454.66 1211.07C1455.24 1207.4 1479.07 1182.28 1481.99 1182.28C1483.31 1182.28 1487.25 1179.52 1490.91 1176.15C1494.56 1172.79 1498.21 1170.03 1499.09 1170.03C1499.97 1170.03 1503.33 1167.58 1506.55 1164.67C1509.91 1161.76 1513.85 1159.31 1515.32 1159.31C1516.78 1159.31 1519.12 1157.93 1520.58 1156.25C1521.89 1154.56 1524.52 1153.18 1526.42 1153.18C1528.18 1153.18 1532.42 1151.8 1535.49 1149.97C1539.29 1147.98 1542.94 1147.21 1546.01 1147.67C1549.81 1148.28 1551.27 1147.67 1553.03 1145.07C1554.2 1143.38 1556.68 1141.85 1558.58 1141.7C1562.82 1141.7 1570.27 1135.27 1573.34 1128.99C1575.39 1125 1575.68 1117.65 1575.68 1081.36C1575.68 1051.65 1576.12 1038.17 1577.29 1037.41C1578.75 1036.49 1588.11 1036.49 1616.61 1037.41C1622.16 1037.56 1628.01 1038.78 1630.79 1040.32C1634.73 1042.46 1640 1042.92 1664.11 1042.92C1681.07 1042.92 1693.93 1043.53 1695.69 1044.45C1698.02 1045.83 1698.46 1047.82 1698.46 1058.69C1698.46 1065.58 1697.15 1077.99 1695.54 1086.26C1693.49 1097.13 1692.62 1107.55 1692.62 1123.17V1144.91L1696.71 1149.05C1698.9 1151.35 1702.12 1153.18 1703.72 1153.18C1705.48 1153.18 1707.96 1154.56 1709.42 1156.25C1710.89 1157.93 1713.37 1159.31 1714.83 1159.31C1717.76 1159.31 1729.74 1165.74 1733.69 1169.42C1734.86 1170.64 1737.05 1171.56 1738.22 1171.56C1739.54 1171.56 1741.29 1172.63 1742.31 1173.86C1743.34 1175.24 1747.28 1177.84 1750.94 1179.68C1758.98 1183.66 1797.86 1225.01 1797.86 1229.45C1797.86 1231.13 1799.17 1233.58 1800.78 1235.12C1804.14 1238.33 1809.55 1248.75 1809.55 1252.11C1809.55 1253.34 1811.01 1256.4 1812.62 1258.7C1814.37 1261.15 1815.4 1263.91 1814.81 1264.67C1814.37 1265.59 1815.4 1267.43 1817.15 1268.65C1819.63 1270.49 1820.37 1272.64 1820.51 1279.53C1820.8 1284.89 1821.68 1289.02 1823.29 1290.86C1824.9 1292.7 1825.63 1296.37 1825.63 1303.27C1825.63 1310.46 1826.36 1314.14 1828.7 1318.12C1831.62 1323.02 1831.77 1324.86 1831.04 1339.87C1830.45 1348.75 1828.99 1359.93 1827.82 1364.52C1826.36 1370.5 1825.63 1380.76 1825.63 1399.9C1825.63 1419.5 1825.04 1428.84 1823.43 1434.36C1821.68 1440.02 1821.1 1453.19 1820.51 1488.57C1819.93 1521.5 1819.05 1538.04 1817.59 1544.47C1816.27 1549.98 1815.25 1564.68 1814.81 1581.22C1814.52 1596.39 1813.93 1610.17 1813.79 1611.85C1813.2 1614.76 1813.93 1614.92 1825.33 1614.92C1873.57 1614.76 1905.58 1613.84 1907.19 1612.77C1908.5 1612.01 1909.38 1607.11 1909.82 1598.68C1910.11 1591.64 1910.99 1574.79 1911.87 1561.32C1912.74 1547.84 1914.06 1519.51 1914.79 1498.53C1915.52 1477.39 1917.13 1444.01 1918.3 1424.25C1920.2 1393.16 1923.12 1320.26 1923.85 1285.35C1924 1276.77 1923.41 1273.56 1921.66 1271.41C1920.05 1269.57 1919.17 1265.9 1919.17 1261.15C1919.17 1256.4 1918.15 1252.11 1916.1 1248.59C1914.35 1245.84 1913.33 1242.47 1913.77 1241.39C1914.2 1240.17 1912.89 1237.72 1910.99 1235.73C1908.06 1232.82 1907.48 1231.13 1908.21 1227.31C1908.8 1223.48 1908.21 1221.49 1905.29 1217.81C1903.24 1215.36 1901.63 1212.3 1901.63 1211.23C1901.63 1210 1900.61 1207.7 1899.44 1206.17C1898.27 1204.49 1897.25 1202.04 1897.25 1200.51C1897.25 1199.13 1894.62 1194.84 1891.26 1191.01C1888.04 1187.03 1885.7 1183.2 1886.14 1182.43C1886.72 1181.67 1885.85 1179.98 1884.39 1178.91C1882.92 1177.84 1880.15 1173.86 1878.25 1170.03C1876.35 1166.2 1872.25 1160.38 1869.33 1157.01C1866.26 1153.64 1862.46 1147.98 1860.71 1144.45C1857.05 1136.95 1833.96 1113.37 1830.16 1113.37C1828.84 1113.37 1824.17 1109.54 1819.78 1104.79C1815.4 1100.04 1808.67 1094.53 1804.87 1092.54C1797.27 1088.56 1795.37 1084.57 1796.98 1076.46C1797.42 1074.01 1797.86 1051.04 1797.86 1025.31L1798 978.904L1790.69 969.409C1786.75 964.049 1781.48 958.536 1779.15 957.157C1776.66 955.626 1774.32 953.635 1773.88 952.716C1773.3 951.797 1771.4 951.032 1769.5 951.032C1767.6 951.032 1764.97 949.653 1763.51 947.969C1761.17 945.212 1758.98 944.906 1743.77 944.906C1731.79 944.906 1725.06 944.14 1721.41 942.609C1718.49 941.383 1712.49 940.311 1708.26 940.311C1703.58 940.311 1699.63 939.546 1698.9 938.321C1697 935.87 1697.59 921.015 1699.78 915.196C1700.8 912.592 1701.53 907.079 1701.53 902.944C1701.53 868.333 1704.16 810.138 1705.77 805.544C1707.23 801.562 1707.96 782.266 1708.69 729.737C1709.57 672.154 1710.16 657.605 1712.06 650.101C1715.13 638.156 1715.71 560.358 1712.79 557.908C1711.62 556.989 1692.32 556.223 1663.38 556.223C1625.23 556.07 1614.12 555.611 1607.11 553.773C1600.24 551.782 1589.71 551.323 1556.68 551.323C1523.5 551.17 1513.12 550.71 1505.52 548.719C1492.37 545.35 1358.92 543.819 1357.02 547.035Z" fill="black"/>
</svg>
